Coordinates
version=1
nRows=18
nColumns=28
inDegrees=yes

Units are S.I. units (second, meters, Newtons, ...)
If the header above contains a line with 'inDegrees', this indicates whether rotational values are in degrees (yes) or radians (no).

endheader
time	pelvis_tilt	pelvis_list	pelvis_rotation	pelvis_tx	pelvis_ty	pelvis_tz	hip_flexion_r	hip_adduction_r	hip_rotation_r	knee_angle_r	knee_rotation_r	knee_adduction_r	ankle_angle_r	subtalar_angle_r	mtp_angle_r	hip_flexion_l	hip_adduction_l	hip_rotation_l	knee_angle_l	knee_rotation_l	knee_adduction_l	ankle_angle_l	subtalar_angle_l	mtp_angle_l	lumbar_extension	lumbar_bending	lumbar_rotation
      0.30000000	      3.19425245	      8.64211988	    -97.67951966	     -0.21119419	      0.93776392	     -0.53947942	     14.42523045	     -8.54797411	     13.34386107	    -52.93373223	     -0.70621546	     14.53471902	    -11.73507471	    -20.66209150	     -8.46368270	     38.12239120	      1.10825907	      1.88512806	    -25.56505069	      6.82548327	     -3.89123432	      4.53316011	    -13.96687118	     -6.13255784	      0.00000000	      0.00000000	      0.00000000
      0.31000000	      4.43263506	      8.36239158	    -97.20426075	     -0.20988380	      0.93884592	     -0.52683005	     16.26624467	    -10.21094070	     12.77285992	    -56.04500501	      0.43547908	     14.69446812	    -14.19114221	    -22.94043302	     -9.10692881	     37.33439405	      2.71990336	      1.68172297	    -25.69960841	      6.56783874	     -3.93178180	      4.75313427	    -14.51993504	     -6.46433297	      0.00000000	      0.00000000	      0.00000000
      0.32000000	      5.60859706	      8.05606880	    -96.63693519	     -0.20863976	      0.94018531	     -0.51417249	     18.03119796	    -11.80566267	     12.23414107	    -58.95594862	      1.42471723	     14.78192115	    -16.27702301	    -25.24488672	    -10.20964160	     36.41458326	      4.31976979	      1.52840192	    -25.70236620	      6.28192843	     -3.93043994	      5.10702546	    -14.87266997	     -6.89352440	      0.00000000	      0.00000000	      0.00000000
      0.33000000	      6.69332952	      7.72648049	    -95.99368058	     -0.20743943	      0.94178924	     -0.50149825	     19.70105272	    -13.30244848	     11.72633241	    -61.63326648	      2.24185697	     14.81040174	    -17.88526613	    -27.43562994	    -11.68748927	     35.36299238	      5.87203023	      1.43969788	    -25.59099704	      5.98777405	     -3.88634219	      5.56818532	    -15.00473195	     -7.34185795	      0.00000000	      0.00000000	      0.00000000
      0.34000000	      7.67838664	      7.39304332	    -95.30314500	     -0.20634198	      0.94362918	     -0.48878493	     21.28711133	    -14.67257390	     11.25105208	    -64.06938567	      2.81798177	     14.77735210	    -18.89064922	    -29.40728613	    -13.29950236	     34.19546042	      7.33934612	      1.40883951	    -25.36746089	      5.72219603	     -3.81096742	      6.12040373	    -14.90144182	     -7.71693962	      0.00000000	      0.00000000	      0.00000000
      0.35000000	      8.55262702	      7.14435099	    -94.54340314	     -0.20525376	      0.94554707	     -0.47601362	     22.86311145	    -15.90316884	     10.75089271	    -66.26958622	      3.14407500	     14.63488426	    -18.68584190	    -30.28300277	    -13.60690600	     33.01255136	      8.71989289	      1.51577567	    -25.05248334	      5.53335344	     -3.71288733	      6.67034419	    -14.71917574	     -7.80382796	      0.00000000	      0.00000000	      0.00000000
      0.36000000	      9.26835021	      6.76226469	    -93.83254749	     -0.20433665	      0.94779342	     -0.46354685	     24.25704465	    -16.94783009	     10.50412342	    -68.12616290	      3.35842934	     14.68330216	    -18.91971775	    -31.91165413	    -14.49623448	     31.62235732	      9.90186586	      1.66538723	    -24.69332714	      5.36149697	     -3.61335144	      7.44268292	    -14.19291361	     -7.91707658	      0.00000000	      0.00000000	      0.00000000
      0.37000000	      9.89426170	      6.54420869	    -93.07684062	     -0.20339049	      0.94995363	     -0.45097894	     25.71925438	    -17.87881795	     10.22972492	    -69.70537292	      3.45847367	     14.67192999	    -18.09582483	    -32.60599619	    -14.65455401	     30.31213113	     10.99375799	      1.95587662	    -24.25872532	      5.22359237	     -3.51173357	      8.01013429	    -13.89388258	     -7.94165114	      0.00000000	      0.00000000	      0.00000000
      0.38000000	     10.42034388	      6.30891456	    -92.35444668	     -0.20253847	      0.95222773	     -0.43853536	     27.09692108	    -18.67979227	     10.10030666	    -70.93660668	      3.53802356	     14.75425163	    -17.16005873	    -33.17656792	    -14.69184858	     28.90986762	     11.94807112	      2.33812121	    -23.74826705	      5.15098440	     -3.41559751	      8.65848819	    -13.39777962	     -7.95695418	      0.00000000	      0.00000000	      0.00000000
      0.39000000	     10.84795822	      6.01882537	    -91.67133995	     -0.20182175	      0.95457023	     -0.42625801	     28.35742540	    -19.32716409	     10.06490530	    -71.85423470	      3.55799691	     14.86306329	    -15.88130865	    -33.40607415	    -14.60516533	     27.42573363	     12.75867398	      2.72680654	    -23.22066339	      5.32523522	     -3.30317046	      9.36130841	    -12.53793406	     -7.92756959	      0.00000000	      0.00000000	      0.00000000
      0.40000000	     11.20593352	      5.78223995	    -90.99307587	     -0.20114439	      0.95683537	     -0.41406757	     29.58990488	    -19.87967286	     10.10933862	    -72.42515298	      3.64709294	     15.03588121	    -14.50030875	    -33.34401044	    -14.36795925	     25.95399534	     13.46489209	      3.21146270	    -22.65977538	      5.48835275	     -3.20632715	     10.06149675	    -11.71832654	     -7.85349780	      0.00000000	      0.00000000	      0.00000000
      0.41000000	     11.44382353	      5.60640025	    -90.32451788	     -0.20054761	      0.95906517	     -0.40179443	     30.74632680	    -20.24812468	     10.10723754	    -72.61958526	      3.79683111	     15.11527752	    -12.75524819	    -32.53089106	    -12.92428357	     24.50691193	     14.00736348	      3.68248571	    -22.09546346	      5.59250188	     -3.08702359	     10.99561003	    -10.77249084	     -7.20930707	      0.00000000	      0.00000000	      0.00000000
      0.42000000	     11.75744815	      5.40989082	    -89.72298392	     -0.20004789	      0.96110727	     -0.38983825	     31.89352386	    -20.68242810	     10.41760971	    -72.51944223	      3.96668994	     15.45548945	    -11.63476503	    -32.33127895	    -12.57518916	     23.01869662	     14.57393855	      4.31552719	    -21.42295211	      6.03260406	     -3.03119084	     11.49014850	     -9.92560827	     -7.12357948	      0.00000000	      0.00000000	      0.00000000
      0.43000000	     12.00221646	      5.25466751	    -89.13557239	     -0.19963347	      0.96302102	     -0.37787316	     32.96160256	    -20.99861212	     10.70282653	    -72.08406890	      4.23797375	     15.73527005	    -10.35444958	    -31.79793188	    -12.23202004	     21.56577643	     15.02345973	      4.92340096	    -20.77976822	      6.36199863	     -2.97129234	     12.15041617	     -8.98662127	     -7.00549137	      0.00000000	      0.00000000	      0.00000000
      0.44000000	     12.20783629	      5.12667274	    -88.58202620	     -0.19928450	      0.96479039	     -0.36593531	     33.94789270	    -21.23535087	     11.02396800	    -71.31630816	      4.53900580	     16.00596235	     -9.19538949	    -31.06065483	    -11.86677519	     20.13434094	     15.38979682	      5.52957667	    -20.12550477	      6.73016597	     -2.91344902	     12.82224479	     -8.00773203	     -6.81325919	      0.00000000	      0.00000000	      0.00000000
      0.45000000	     12.40098906	      5.02404094	    -88.03717436	     -0.19898580	      0.96635575	     -0.35410970	     34.85193904	    -21.44342356	     11.39622072	    -70.24640067	      4.84015589	     16.30726850	     -8.17555451	    -30.37304367	    -11.55617672	     18.74592630	     15.70853970	      6.13906156	    -19.50078576	      7.06283284	     -2.85934184	     13.47373370	     -7.09195754	     -6.54734199	      0.00000000	      0.00000000	      0.00000000
      0.46000000	     12.61989861	      4.95771139	    -87.54173673	     -0.19878550	      0.96770060	     -0.34228538	     35.69808949	    -21.64325062	     11.82157317	    -68.91504043	      4.96874927	     16.60133888	     -7.28795800	    -29.84753599	    -11.44201469	     17.37784552	     16.00479094	      6.77757352	    -18.82541716	      7.43464160	     -2.83006413	     14.04043980	     -6.24361102	     -6.32340312	      0.00000000	      0.00000000	      0.00000000
      0.47000000	     12.77795007	      4.89793684	    -87.08419335	     -0.19863704	      0.96889524	     -0.33053836	     36.40740585	    -21.74623155	     12.23218841	    -67.27728304	      5.10227740	     16.83347820	     -6.46164653	    -29.15026434	    -11.47832702	     16.04922604	     16.19879833	      7.37314485	    -18.19821201	      7.79677152	     -2.80628254	     14.68000839	     -5.32042557	     -6.00792787	      0.00000000	      0.00000000	      0.00000000
